# xmcd
#
# Track frame offsets: 
#        150
#        11990
#        28126
#        41867
#        60880
#        80755
#        92912
#        107098
#        117319
#        138269
#        153187
#        167193
#        187124
#        199375
#        213188
#
# Disc length: 3019 seconds
#
# Revision: 0
# Processed by: cddbd v1.5.2PL0 Copyright (c) Steve Scherf et al.
# Submitted via: ExactAudioCopyFreeDBPlugin 1.0
#
DISCID=d50bc90f
DTITLE=Yancey de Veer - Cowboy Ride
DYEAR=2015
DGENRE=Country
TTITLE0=Montana Moon
TTITLE1=Dancin' In the Wind
TTITLE2=Cowboy At Heart
TTITLE3=The Spell
TTITLE4=Coyote
TTITLE5=Navajo Rug
TTITLE6=Dirt Red Road
TTITLE7=Buckarodel
TTITLE8=Aces and Eights
TTITLE9=Cowboy Ride
TTITLE10=Sawdust Man
TTITLE11=Cheyenne Stage
TTITLE12=Always a Party
TTITLE13=Horse Will Buck
TTITLE14=Farewell Friend
EXTD=
EXTT0=
EXTT1=
EXTT2=
EXTT3=
EXTT4=
EXTT5=
EXTT6=
EXTT7=
EXTT8=
EXTT9=
EXTT10=
EXTT11=
EXTT12=
EXTT13=
EXTT14=
PLAYORDER=
